<svg xmlns="http://www.w3.org/2000/svg" width="170" height="130" viewBox="0 0 170 130" fill="none">
  <g clip-path="url(#clip0_971_3185)">
    <path d="M59.4963 126.727C47.5284 126.22 34.8651 125.533 25.1549 120.24C22.6833 118.892 20.4363 117.242 19.0185 115.185C16.5362 111.59 16.8625 107.265 16.9481 103.172C17.1889 92.2064 13.9735 79.6754 1.59375 74.3193C8.13139 73.431 15.0435 74.4462 20.6342 77.1058C16.7127 72.0352 12.6414 66.457 13.6953 60.5722C14.4122 56.5908 17.3922 53.0748 19.2914 49.3207C23.4269 41.1201 22.0948 31.476 15.8193 24.2376C23.1808 27.3624 30.125 31.053 36.5236 35.23C37.2619 30.6511 41.5044 26.8337 46.0786 23.7987C50.6528 20.7638 55.8048 18.1518 59.4856 14.4718C63.1663 10.7919 65.1137 5.5891 62.2675 1.56543C69.185 8.57645 76.7659 15.2015 84.9299 21.3718C93.2919 16.1902 101.408 10.7707 109.256 5.13439C110.626 12.0555 115.077 18.559 121.695 23.3334C126.108 18.4849 133.261 15.138 140.869 14.3608C137.622 19.019 138.371 24.7346 140.676 29.6518C142.977 34.569 146.69 39.0157 149.354 43.8272C152.757 49.9658 154.415 56.6807 154.185 63.3851C157.657 60.2127 163.077 58.3462 168.437 58.4784C160.781 63.4961 158.7 71.8819 158.599 79.5485C158.502 87.2152 159.861 95.0457 157.111 102.448C153.484 112.224 142.886 119.96 130.72 124.031C118.554 128.102 104.955 128.885 91.7832 128.234C80.6607 127.69 59.4963 126.727 59.4963 126.727Z" fill="#FF5544"/>
    <path d="M59.4963 125.141C52.7715 124.855 45.9984 124.559 39.3645 123.317C36.1706 122.719 33.0141 121.905 29.9807 120.736C27.1559 119.647 24.2616 118.214 22.0146 116.168C19.7676 114.122 18.7137 111.357 18.5371 108.295C18.3766 105.514 18.6388 102.733 18.5211 99.9519C18.3017 94.8972 17.312 89.8583 15.1239 85.2636C12.5077 79.7806 8.01378 75.408 2.40703 72.9494L1.59919 75.905C7.74628 75.1013 14.1983 75.831 19.8318 78.4747C20.4845 78.7813 21.2442 78.7549 21.7792 78.2262C22.2393 77.7715 22.4533 76.8567 22.0306 76.3016C19.5697 73.1186 16.9054 69.7611 15.7017 65.8802C15.156 64.1301 14.9527 62.2795 15.3646 60.4765C15.7819 58.663 16.654 57.0186 17.5902 55.4218C19.5376 52.1067 21.608 48.9396 22.5603 45.1697C23.4537 41.6377 23.4965 37.9472 22.7315 34.3888C21.8381 30.1959 19.7516 26.3679 16.9642 23.1109L15.0169 25.6012C22.2232 28.6732 29.1675 32.3267 35.7212 36.5936C36.529 37.117 37.9093 36.6306 38.0805 35.6472C38.5727 32.8237 40.3435 30.5607 42.4086 28.6361C44.7412 26.463 47.4536 24.7658 50.1607 23.095C55.5588 19.764 61.7647 16.2902 64.3167 10.1939C65.6113 7.10607 65.5953 3.58998 63.664 0.76125L61.1441 2.68584C68.297 9.92422 76.0063 16.5916 84.1329 22.7407C84.5609 23.0686 85.3152 23.0104 85.7539 22.7407C94.041 17.5962 102.157 12.1872 110.08 6.50331L107.721 5.55687C109.32 13.4139 114.456 20.0231 120.892 24.7024C121.438 25.0989 122.396 24.935 122.84 24.4538C127.425 19.4732 134.176 16.655 140.88 15.9465L139.494 13.5619C135.417 19.5578 137.204 26.9125 140.511 32.792C142.287 35.9538 144.448 38.8883 146.385 41.955C148.316 45.0163 149.927 48.2258 151.002 51.6837C152.179 55.4853 152.714 59.4138 152.591 63.3846C152.548 64.8227 154.346 65.3938 155.33 64.5055C158.84 61.349 163.772 59.9742 168.443 60.0588L167.635 57.1032C163.237 60.0218 160.166 64.2517 158.551 69.2218C156.903 74.2871 156.908 79.6009 157.095 84.8565C157.309 90.8788 157.673 97.1813 155.239 102.86C153.34 107.291 150.023 110.997 146.283 114.011C137.343 121.228 125.681 124.633 114.392 126.008C103.382 127.346 92.3611 126.658 81.3241 126.14C74.182 125.807 67.0451 125.479 59.9029 125.151C59.7692 125.146 59.6354 125.141 59.5017 125.136C57.4366 125.04 57.442 128.213 59.5017 128.308C65.6488 128.588 71.8012 128.868 77.9483 129.154C88.6536 129.651 99.3802 130.481 110.091 129.614C122.144 128.641 134.438 125.812 144.63 119.119C148.974 116.263 152.923 112.742 155.822 108.427C159.091 103.558 160.321 97.9268 160.45 92.1478C160.573 86.4374 159.754 80.6795 160.525 74.9903C161.161 70.3004 162.911 65.6687 166.313 62.2478C167.212 61.3437 168.191 60.5453 169.251 59.8421C170.545 58.9802 170.09 56.9182 168.443 56.8864C162.9 56.786 157.197 58.5414 153.056 62.2584L155.795 63.3793C156.009 56.2308 154.164 49.1405 150.676 42.8908C147.38 36.9902 142.356 31.7134 140.735 25.0249C139.906 21.604 140.254 18.1143 142.265 15.1534C142.902 14.2123 142.073 12.6419 140.88 12.7688C133.342 13.5725 125.75 16.581 120.571 22.2067L122.519 21.9582C116.735 17.7548 112.252 11.7378 110.818 4.7109C110.626 3.76975 109.272 3.18285 108.459 3.76446C100.541 9.44836 92.4199 14.8573 84.1329 20.0019H85.7539C77.8467 14.0219 70.3728 7.48147 63.4179 0.438721C62.1713 -0.819667 59.8548 0.84056 60.898 2.36332C64.2953 7.33342 59.4696 12.827 55.5748 15.7667C50.5138 19.5842 44.57 22.1856 39.9476 26.5794C37.6097 28.8053 35.5553 31.5812 34.9882 34.8065L37.3476 33.86C30.7939 29.5879 23.8496 25.9396 16.6433 22.8676C14.9848 22.1644 13.4654 23.9251 14.6959 25.358C19.2861 30.7141 21.2335 37.9895 19.3343 44.8207C18.3178 48.4848 16.0815 51.4933 14.2625 54.7874C13.337 56.4634 12.497 58.2611 12.16 60.154C11.8229 62.0469 11.9085 64.1301 12.4168 66.0758C13.5777 70.5225 16.4881 74.3241 19.2594 77.9089L21.4529 75.7411C15.3165 72.8542 8.32943 71.8549 1.60454 72.7379C0.887649 72.8331 0.261705 73.1662 0.0584068 73.9011C-0.112792 74.525 0.154706 75.4133 0.7967 75.6935C5.6919 77.8349 9.54922 81.388 11.9834 86.1043C14.1983 90.3976 15.1292 95.2779 15.3272 100.058C15.4449 102.939 15.1506 105.826 15.3646 108.697C15.6161 112.055 16.654 115.185 19.0133 117.68C21.1961 119.991 24.1118 121.63 27.0061 122.91C29.9004 124.189 33.2013 125.236 36.4381 125.95C43.9975 127.615 51.7924 127.98 59.507 128.308C61.5721 128.398 61.5668 125.225 59.507 125.136L59.4963 125.141Z" fill="black"/>
    <path d="M51.6163 57.5949C51.3488 56.9023 50.3162 56.8071 49.701 57.2301C49.0857 57.6531 48.7968 58.3933 48.5454 59.0913C46.8548 63.7917 45.4531 68.619 44.8807 73.5733C44.1852 79.5797 44.7737 85.8822 47.6359 91.2225C50.4981 96.5627 55.8855 100.782 61.9791 101.284C69.4262 101.898 76.5203 96.8429 79.9442 90.276C83.3629 83.7091 83.6625 75.9579 82.7048 68.6349C81.8542 62.1156 79.559 55.0411 73.7597 51.8264C71.6625 50.6632 69.2604 50.1133 66.8583 49.9124C60.9412 49.4154 54.4678 51.3083 51.0171 56.088" fill="white"/>
    <path d="M53.5798 60.0272L51.6859 79.5269C51.4345 82.1283 51.1991 84.8513 52.1942 87.2676C53.6494 90.789 57.6404 92.9304 61.4871 92.7876C65.3337 92.6448 68.9181 90.4876 71.3417 87.532C73.7652 84.5763 75.1294 80.8911 75.8838 77.1635C76.9217 72.0348 76.8147 66.4355 74.1611 61.9095C71.5075 57.3835 65.8205 54.3644 60.7702 55.9295C56.6881 57.1932 53.9704 60.9525 51.8785 64.6378" fill="black"/>
    <path d="M101.884 52.5187C99.0809 52.0799 96.775 54.6707 95.4589 57.1557C91.8317 64.0134 91.0345 72.1084 92.265 79.7486C92.9766 84.1582 94.4157 88.6102 97.4331 91.9359C100.82 95.6688 106.111 97.6357 111.145 97.0118C116.179 96.3879 120.823 93.1837 123.134 88.7212C124.167 86.7226 124.75 84.5231 125.124 82.3129C126.071 76.7401 125.761 70.9663 124.215 65.5256C122.936 61.0314 120.721 56.6482 117.067 53.6978C113.413 50.7475 108.128 49.4891 103.821 51.3978" fill="white"/>
    <path d="M104.881 57.1147C101.596 59.5205 99.5631 63.3644 98.8622 67.3405C98.1614 71.3218 98.691 75.4354 99.8038 79.3269C101.088 83.8211 103.934 88.6855 108.631 89.1984C111.873 89.5526 115.057 87.5434 116.779 84.8046C118.502 82.0657 118.983 78.7294 118.951 75.5041C118.898 70.386 117.598 65.1779 114.596 61.0062C112.612 58.2515 109.038 55.8458 105.94 57.2787" fill="black"/>
    <path d="M59.5184 62.66C58.3735 63.6276 58.4591 65.4094 58.962 66.8106C59.5398 68.4126 60.5777 69.9037 62.0703 70.7549C63.563 71.6062 65.5318 71.7172 66.9816 70.7972C68.501 69.8296 69.1911 67.8733 68.9343 66.1021C68.6775 64.3308 67.5968 62.7605 66.2433 61.5761C65.3445 60.7883 64.2692 60.1326 63.0761 59.9952C61.8831 59.8577 60.567 60.3389 59.9732 61.3699" fill="white"/>
    <path d="M57.8063 78.2584C57.0412 80.0931 58.9084 82.3878 60.8932 82.1129C62.878 81.8379 64.0657 79.2419 63.0225 77.5446C61.9792 75.8474 59.1973 75.6412 57.8437 77.1058" fill="white"/>
    <path d="M103.414 64.9602C102.788 67.5246 103.618 70.5436 105.854 71.9765C108.09 73.4094 111.653 72.6057 112.573 70.1312C112.878 69.317 112.889 68.4234 112.782 67.5616C112.552 65.748 111.744 63.945 110.289 62.8082C108.834 61.6715 106.694 61.3384 105.089 62.2531C103.484 63.1678 102.735 65.4255 103.714 66.98" fill="white"/>
    <path d="M106.378 79.5801C105.223 81.1822 106.79 83.8047 108.775 83.6566C110.76 83.5086 111.958 80.8332 110.803 79.2311C109.647 77.6291 106.801 77.7877 105.758 79.4638" fill="white"/>
    <path d="M67.6821 39.1061C65.9219 38.5139 64.0602 37.9111 62.2412 38.2971C60.4222 38.6831 58.7744 40.4649 59.2612 42.2362C59.7427 43.9863 61.8239 44.6842 63.6108 45.1125C66.4944 45.7999 69.3727 46.4872 72.2563 47.1693C73.6312 47.4971 75.5786 47.4971 75.8889 46.133C76.028 45.5196 75.7177 44.9063 75.3753 44.3776C73.7596 41.8555 71.2558 39.8992 68.3936 38.9316" fill="black"/>
    <path d="M96.406 42.4566C95.0097 44.1485 93.6241 46.7076 95.1434 48.2885C96.2402 49.4306 98.1341 49.161 99.6588 48.6798C102.355 47.8338 104.934 46.6177 107.299 45.0738C108.213 44.4764 109.128 43.7943 109.653 42.8373C110.177 41.8803 110.198 40.5796 109.433 39.8023C108.7 39.0568 107.523 38.9987 106.475 39.0621C101.991 39.3318 97.6044 41.029 94.127 43.8366" fill="black"/>
    <path d="M135.611 45.2065C136.183 46.8985 135.755 48.8812 134.525 50.1872C133.294 51.4932 131.326 52.0642 129.576 51.6201C132.813 53.2327 135.097 56.5638 135.418 60.1274C135.6 55.3212 140.565 51.25 145.375 51.9585C142.223 50.5256 139.393 48.4107 137.13 45.8093" fill="white"/>
    <path d="M37.9902 91.9358C37.8404 95.4731 35.1494 98.7618 31.6826 99.6448C34.8765 100.454 37.3643 103.457 37.5462 106.709C38.996 105.054 39.8038 102.955 40.9915 101.109C42.1792 99.2641 43.9982 97.551 46.2131 97.4876C42.4521 98.2066 38.3915 95.2827 37.9314 91.5234" fill="white"/>
    <path d="M134.358 85.6758C134.016 87.1298 134.69 88.7583 135.968 89.5567C137.247 90.3551 139.023 90.2599 140.206 89.3346C141.046 88.679 141.57 87.5739 141.334 86.5429C141.072 85.422 139.976 84.6395 138.836 84.3909C137.696 84.1424 136.514 84.3222 135.364 84.502" fill="white"/>
    <path d="M37.5191 50.7856C37.1072 52.4987 39.3274 54.1219 40.9217 53.3341C42.516 52.5463 42.6498 49.9819 41.2213 48.9245C39.7929 47.867 37.4657 48.5702 36.7434 50.1829" fill="white"/>
    <path d="M122.188 32.1151C121.947 33.3893 124.237 33.9181 124.846 32.7654C125.456 31.6128 124.349 30.1218 123.044 29.9684C121.738 29.8151 120.492 30.6241 119.668 31.634" fill="white"/>
  </g>
  <defs>
    <clipPath id="clip0_971_3185">
      <rect width="170" height="130" fill="white"/>
    </clipPath>
  </defs>
</svg>