<svg xmlns="http://www.w3.org/2000/svg" width="20" height="21" viewBox="0 0 20 21" fill="none">
  <path d="M3.85 15.9174C4.7 15.2674 5.65 14.7549 6.7 14.3799C7.75 14.0049 8.85 13.8174 10 13.8174C11.15 13.8174 12.25 14.0049 13.3 14.3799C14.35 14.7549 15.3 15.2674 16.15 15.9174C16.7333 15.234 17.1875 14.4591 17.5125 13.5924C17.8375 12.7257 18 11.8007 18 10.8174C18 8.60072 17.2208 6.71322 15.6625 5.15488C14.1042 3.59655 12.2167 2.81738 10 2.81738C7.78333 2.81738 5.89583 3.59655 4.3375 5.15488C2.77917 6.71322 2 8.60072 2 10.8174C2 11.8007 2.1625 12.7257 2.4875 13.5924C2.8125 14.4591 3.26667 15.234 3.85 15.9174ZM10 11.8174C9.01667 11.8174 8.1875 11.4799 7.5125 10.8049C6.8375 10.1299 6.5 9.30072 6.5 8.31738C6.5 7.33405 6.8375 6.50488 7.5125 5.82988C8.1875 5.15488 9.01667 4.81738 10 4.81738C10.9833 4.81738 11.8125 5.15488 12.4875 5.82988C13.1625 6.50488 13.5 7.33405 13.5 8.31738C13.5 9.30072 13.1625 10.1299 12.4875 10.8049C11.8125 11.4799 10.9833 11.8174 10 11.8174ZM10 20.8174C8.61667 20.8174 7.31667 20.5549 6.1 20.0299C4.88333 19.5049 3.825 18.7924 2.925 17.8924C2.025 16.9924 1.3125 15.934 0.7875 14.7174C0.2625 13.5007 0 12.2007 0 10.8174C0 9.43405 0.2625 8.13405 0.7875 6.91738C1.3125 5.70072 2.025 4.64238 2.925 3.74238C3.825 2.84238 4.88333 2.12988 6.1 1.60488C7.31667 1.07988 8.61667 0.817383 10 0.817383C11.3833 0.817383 12.6833 1.07988 13.9 1.60488C15.1167 2.12988 16.175 2.84238 17.075 3.74238C17.975 4.64238 18.6875 5.70072 19.2125 6.91738C19.7375 8.13405 20 9.43405 20 10.8174C20 12.2007 19.7375 13.5007 19.2125 14.7174C18.6875 15.934 17.975 16.9924 17.075 17.8924C16.175 18.7924 15.1167 19.5049 13.9 20.0299C12.6833 20.5549 11.3833 20.8174 10 20.8174ZM10 18.8174C10.8833 18.8174 11.7167 18.6882 12.5 18.4299C13.2833 18.1716 14 17.8007 14.65 17.3174C14 16.834 13.2833 16.4632 12.5 16.2049C11.7167 15.9465 10.8833 15.8174 10 15.8174C9.11667 15.8174 8.28333 15.9465 7.5 16.2049C6.71667 16.4632 6 16.834 5.35 17.3174C6 17.8007 6.71667 18.1716 7.5 18.4299C8.28333 18.6882 9.11667 18.8174 10 18.8174ZM10 9.81738C10.4333 9.81738 10.7917 9.67572 11.075 9.39238C11.3583 9.10905 11.5 8.75072 11.5 8.31738C11.5 7.88405 11.3583 7.52572 11.075 7.24238C10.7917 6.95905 10.4333 6.81738 10 6.81738C9.56667 6.81738 9.20833 6.95905 8.925 7.24238C8.64167 7.52572 8.5 7.88405 8.5 8.31738C8.5 8.75072 8.64167 9.10905 8.925 9.39238C9.20833 9.67572 9.56667 9.81738 10 9.81738Z" fill="white"/>
</svg>