<svg width="103" height="13" viewBox="0 0 103 13" fill="none" xmlns="http://www.w3.org/2000/svg">
<g clip-path="url(#clip0_127_3854)">
<path d="M7.76505 8.51724C7.45418 8.51724 7.18088 8.40233 6.94516 8.1725C6.70944 7.94267 6.59102 7.64913 6.59102 7.29302C6.59102 6.86749 6.70603 6.53413 6.93605 6.29293C7.16608 6.05172 7.49404 5.93112 7.91992 5.93112H10.4741C11.0492 5.93112 11.5035 6.10975 11.8372 6.46587C12.1708 6.82198 12.3371 7.27026 12.3371 7.81069V11.3628C12.3371 11.8338 12.2335 12.2252 12.0262 12.5347C11.819 12.8453 11.4625 13 10.9558 13C10.5641 13 10.2486 12.8817 10.0072 12.6462C9.76582 12.4106 9.64511 12.1205 9.64511 11.7758V11.431H9.61095C9.31146 11.9134 8.82636 12.2957 8.15336 12.5779C7.48037 12.8589 6.78118 13 6.05695 13C5.33271 13 4.58114 12.8874 3.87399 12.6632C3.16683 12.4391 2.51889 12.0773 1.93244 11.5767C1.34599 11.0761 0.876828 10.4048 0.526097 9.55943C0.175366 8.71521 0 7.69578 0 6.5C0 5.385 0.184476 4.40767 0.552288 3.56914C0.9201 2.73061 1.41204 2.0491 2.02809 1.52573C2.64301 1.00236 3.31601 0.617801 4.04707 0.370908C4.77701 0.124015 5.51035 0 6.24712 0C7.18999 0 7.99508 0.103536 8.66238 0.310607C9.32968 0.517679 9.85578 0.77595 10.2418 1.08656C10.6267 1.39716 10.9057 1.71915 11.0788 2.05251C11.2519 2.38587 11.3373 2.69079 11.3373 2.96613C11.3373 3.40303 11.1676 3.80238 10.8283 4.16419C10.4889 4.52599 10.0254 4.7069 9.439 4.7069C9.17367 4.7069 8.95617 4.65001 8.78309 4.53396C8.61 4.41904 8.40958 4.24042 8.17955 3.99921C7.90398 3.69998 7.63865 3.47584 7.38585 3.3268C7.13306 3.17775 6.7994 3.10266 6.3849 3.10266C5.67205 3.10266 5.09016 3.3871 4.64263 3.95598C4.19397 4.52486 3.96964 5.39524 3.96964 6.56826C3.96964 7.74129 4.16209 8.54796 4.54812 9.12822C4.93301 9.70847 5.59804 9.9986 6.54091 9.9986C7.13875 9.9986 7.6193 9.87231 7.98141 9.61973C8.34353 9.36715 8.59406 8.99851 8.73184 8.5161H7.76505V8.51724Z" fill="#FF5544"/>
<path d="M14.667 2.65556C14.667 1.82841 14.8594 1.22768 15.2455 0.854493C15.6304 0.481309 16.2487 0.293579 17.1005 0.293579H21.5006C22.9388 0.293579 24.0308 0.626942 24.779 1.29367C25.5271 1.96039 25.9006 2.80006 25.9006 3.81038C25.9006 4.6034 25.6763 5.25875 25.2276 5.77529C24.779 6.29297 24.1629 6.62633 23.3818 6.77537V6.80951C24.0604 6.85502 24.5922 7.01658 24.9783 7.29192C25.3632 7.56725 25.5966 8.01553 25.6775 8.63674L25.8152 9.67096C25.8722 10.0385 25.9154 10.3604 25.9451 10.6369C25.9735 10.9123 25.9883 11.1717 25.9883 11.4129C25.9883 11.8611 25.8073 12.2264 25.4451 12.5074C25.083 12.7884 24.6719 12.9295 24.2119 12.9295C23.6015 12.9295 23.1016 12.7918 22.711 12.5154C22.3193 12.24 22.0893 11.8088 22.021 11.2217L21.8308 9.58336C21.7727 9.11233 21.5951 8.77896 21.2956 8.58327C20.9961 8.38758 20.5941 8.28973 20.0874 8.28973H18.5341V10.8588C18.5341 11.5255 18.3668 12.0375 18.0342 12.3936C17.7006 12.7497 17.2235 12.9284 16.6017 12.9284C15.98 12.9284 15.5028 12.7497 15.1692 12.3936C14.8355 12.0375 14.6693 11.5255 14.6693 10.8588V2.65556H14.667ZM20.5167 5.70702C21.0918 5.70702 21.5063 5.61259 21.7591 5.42258C22.0119 5.23258 22.1383 4.92538 22.1383 4.49986C22.1383 4.07434 22.0119 3.76715 21.7591 3.57714C21.5063 3.38714 21.0918 3.2927 20.5167 3.2927H18.5319V5.70588H20.5167V5.70702Z" fill="#FF5544"/>
<path d="M30.7152 11.034L30.4397 11.9476C30.3474 12.281 30.1459 12.5279 29.8361 12.6894C29.5252 12.8499 29.1916 12.9307 28.8352 12.9307C28.3637 12.9307 27.9435 12.7759 27.5757 12.4653C27.2079 12.1547 27.0234 11.7758 27.0234 11.3276C27.0234 11.075 27.0724 10.7792 27.1703 10.4401C27.2683 10.1011 27.4209 9.64481 27.6281 9.06911L27.6452 9.01791L30.2859 1.67369C30.4818 1.13326 30.7255 0.731632 31.0193 0.466535C31.3131 0.202575 31.7014 0.069458 32.1842 0.069458H33.4266C33.9094 0.069458 34.2977 0.201438 34.5915 0.466535C34.8853 0.731632 35.129 1.13326 35.3248 1.67369L37.9656 9.01791L37.9827 9.06911C38.1785 9.62092 38.3277 10.0726 38.4313 10.423C38.5349 10.7735 38.5862 11.075 38.5862 11.3287C38.5862 11.777 38.4017 12.1558 38.0339 12.4664C37.6661 12.7771 37.2459 12.9318 36.7745 12.9318C36.418 12.9318 36.0844 12.851 35.7735 12.6906C35.4626 12.5302 35.2611 12.2833 35.17 11.9488L34.8944 11.0352H30.7186L30.7152 11.034ZM32.8208 4.01747H32.7866L31.4406 8.55143H34.1667L32.8208 4.01747Z" fill="#FF5544"/>
<path d="M40.0679 2.65556C40.0679 1.83979 40.2512 1.24133 40.6202 0.862457C40.988 0.483584 41.5573 0.293579 42.3283 0.293579H46.4528C47.2693 0.293579 47.9593 0.376635 48.523 0.543885C49.0867 0.711136 49.541 0.937549 49.8861 1.2254C50.2311 1.51325 50.4782 1.8432 50.6285 2.21639C50.7777 2.58957 50.8529 2.99575 50.8529 3.43151C50.8529 4.10961 50.7174 4.66711 50.4475 5.10401C50.1765 5.54091 49.7255 5.84014 49.0924 6.00056V6.0347C49.828 6.17236 50.3951 6.51142 50.7925 7.05185C51.1899 7.59228 51.3881 8.25901 51.3881 9.05202C51.3881 10.1215 50.9906 10.9976 50.1969 11.6814C49.4032 12.3652 48.2474 12.7076 46.7284 12.7076H42.3283C41.5573 12.7076 40.988 12.5176 40.6202 12.1388C40.2523 11.7599 40.0679 11.1626 40.0679 10.3457V2.65556ZM45.8834 5.34522C46.2512 5.34522 46.545 5.23372 46.7637 5.00844C46.9823 4.7843 47.0916 4.52262 47.0916 4.22453C47.0916 3.86841 46.9937 3.58966 46.7978 3.38828C46.602 3.18689 46.2979 3.08677 45.8834 3.08677H43.9339V5.34522H45.8834ZM45.9176 9.91444C46.4118 9.91444 46.8035 9.81091 47.0905 9.60384C47.3774 9.39676 47.5221 9.09867 47.5221 8.70728C47.5221 8.3159 47.3786 8.02008 47.0905 7.81983C46.8024 7.61845 46.4118 7.51833 45.9176 7.51833H43.9327V9.91444H45.9176Z" fill="#FF5544"/>
<path d="M53.4932 2.65556C53.4932 1.83979 53.6765 1.24133 54.0454 0.862457C54.4133 0.483584 54.9826 0.293579 55.7536 0.293579H59.8781C60.6945 0.293579 61.3846 0.376635 61.9483 0.543885C62.512 0.711136 62.9663 0.937549 63.3114 1.2254C63.6564 1.51325 63.9035 1.8432 64.0538 2.21639C64.203 2.58957 64.2781 2.99575 64.2781 3.43151C64.2781 4.10961 64.1426 4.66711 63.8728 5.10401C63.6017 5.54091 63.1508 5.84014 62.5177 6.00056V6.0347C63.2533 6.17236 63.8204 6.51142 64.2178 7.05185C64.6152 7.59228 64.8134 8.25901 64.8134 9.05202C64.8134 10.1215 64.4159 10.9976 63.6222 11.6814C62.8285 12.3652 61.6727 12.7076 60.1536 12.7076H55.7536C54.9826 12.7076 54.4133 12.5176 54.0454 12.1388C53.6776 11.7599 53.4932 11.1626 53.4932 10.3457V2.65556ZM59.3087 5.34522C59.6765 5.34522 59.9703 5.23372 60.1889 5.00844C60.4076 4.7843 60.5169 4.52262 60.5169 4.22453C60.5169 3.86841 60.419 3.58966 60.2231 3.38828C60.0272 3.18689 59.7232 3.08677 59.3087 3.08677H57.3592V5.34522H59.3087ZM59.3429 9.91444C59.8371 9.91444 60.2288 9.81091 60.5158 9.60384C60.8027 9.39676 60.9473 9.09867 60.9473 8.70728C60.9473 8.3159 60.8039 8.02008 60.5158 7.81983C60.2277 7.61845 59.8371 7.51833 59.3429 7.51833H57.358V9.91444H59.3429Z" fill="#FF5544"/>
<path d="M66.9702 2.65556C66.9702 1.83979 67.1547 1.24133 67.5225 0.862457C67.8903 0.483584 68.4597 0.293579 69.2306 0.293579H75.5461C76.1211 0.293579 76.5527 0.423283 76.8408 0.681554C77.1278 0.939824 77.2724 1.29367 77.2724 1.74194C77.2724 2.19022 77.1289 2.54406 76.8408 2.80233C76.5527 3.0606 76.1223 3.19031 75.5461 3.19031H70.9387V4.93107H74.6316C75.2067 4.93107 75.6383 5.06078 75.9264 5.31905C76.2134 5.57732 76.358 5.93116 76.358 6.37944C76.358 6.82771 76.2145 7.18155 75.9264 7.43982C75.6383 7.69809 75.2078 7.8278 74.6316 7.8278H70.9387V9.81091H75.7362C76.3113 9.81091 76.7429 9.94061 77.031 10.1989C77.3179 10.4572 77.4625 10.811 77.4625 11.2593C77.4625 11.7075 77.3191 12.0614 77.031 12.3197C76.7429 12.5779 76.3124 12.7076 75.7362 12.7076H69.2306C68.4597 12.7076 67.8903 12.5176 67.5225 12.1388C67.1547 11.7599 66.9702 11.1626 66.9702 10.3457V2.65556Z" fill="#FF5544"/>
<path d="M79.2051 2.65556C79.2051 1.82841 79.3975 1.22768 79.7836 0.854493C80.1685 0.481309 80.7868 0.293579 81.6386 0.293579H86.0386C87.4769 0.293579 88.5689 0.626942 89.3171 1.29367C90.0652 1.96039 90.4387 2.80006 90.4387 3.81038C90.4387 4.6034 90.2144 5.25875 89.7657 5.77529C89.3171 6.29297 88.701 6.62633 87.9198 6.77537V6.80951C88.5985 6.85502 89.1303 7.01658 89.5163 7.29192C89.9012 7.56725 90.1347 8.01553 90.2155 8.63674L90.3533 9.67096C90.4103 10.0385 90.4535 10.3604 90.4831 10.6369C90.5116 10.9123 90.5264 11.1717 90.5264 11.4129C90.5264 11.8611 90.3454 12.2264 89.9832 12.5074C89.6211 12.7884 89.21 12.9295 88.75 12.9295C88.1396 12.9295 87.6397 12.7918 87.2491 12.5154C86.8574 12.24 86.6274 11.8088 86.5591 11.2217L86.3689 9.58336C86.3108 9.11233 86.1332 8.77896 85.8337 8.58327C85.5342 8.38758 85.1322 8.28973 84.6255 8.28973H83.0722V10.8588C83.0722 11.5255 82.9048 12.0375 82.5723 12.3936C82.2387 12.7497 81.7615 12.9284 81.1398 12.9284C80.518 12.9284 80.0409 12.7497 79.7073 12.3936C79.3736 12.0375 79.2074 11.5255 79.2074 10.8588V2.65556H79.2051ZM85.0548 5.70702C85.6298 5.70702 86.0443 5.61259 86.2971 5.42258C86.5499 5.23258 86.6763 4.92538 86.6763 4.49986C86.6763 4.07434 86.5499 3.76715 86.2971 3.57714C86.0443 3.38714 85.6298 3.2927 85.0548 3.2927H83.07V5.70588H85.0548V5.70702Z" fill="#FF5544"/>
<path d="M98.8847 8.62074C98.7173 8.49445 98.4383 8.37385 98.0477 8.25893L95.4081 7.50005C94.4071 7.21333 93.6453 6.7753 93.1215 6.18935C92.5977 5.60341 92.3369 4.87866 92.3369 4.01738C92.3369 3.47694 92.4291 2.96837 92.6125 2.49165C92.7958 2.01493 93.0839 1.58941 93.4757 1.21622C93.8662 0.843038 94.3696 0.547222 94.9856 0.328772C95.6005 0.110323 96.3282 0.00109863 97.1686 0.00109863C97.8006 0.00109863 98.4201 0.0443334 99.0236 0.130803C99.6271 0.217272 100.189 0.36063 100.705 0.562012C101.224 0.763395 101.64 1.03646 101.957 1.3812C102.274 1.72594 102.432 2.14577 102.432 2.63955C102.432 3.13334 102.27 3.4906 101.949 3.77731C101.627 4.06516 101.212 4.20852 100.707 4.20852C100.441 4.20852 100.22 4.15618 100.043 4.05379C99.864 3.95025 99.6544 3.78414 99.413 3.55431C99.1022 3.27897 98.8095 3.06621 98.5328 2.91603C98.2572 2.76698 97.8769 2.69189 97.3941 2.69189C97.0262 2.69189 96.7176 2.76357 96.4705 2.90693C96.2234 3.05028 96.0993 3.25508 96.0993 3.51904C96.0993 3.783 96.2052 3.9878 96.4182 4.13115C96.6311 4.27451 96.967 4.4099 97.4282 4.53619L99.4814 5.08801C100.62 5.39861 101.491 5.83779 102.096 6.40667C102.699 6.97554 103.002 7.76628 103.002 8.77775C103.002 9.48998 102.861 10.1135 102.58 10.6482C102.297 11.183 101.916 11.6256 101.432 11.976C100.949 12.3264 100.399 12.5858 99.7843 12.7519C99.1682 12.918 98.5214 13.0022 97.8427 13.0022C96.8645 13.0022 96.0196 12.9078 95.3056 12.7178C94.5916 12.5278 94.0222 12.2786 93.5975 11.968C93.1716 11.6574 92.8642 11.3331 92.674 10.9941C92.4838 10.655 92.3893 10.3308 92.3893 10.0202C92.3893 9.53777 92.5476 9.14638 92.8642 8.84829C93.1807 8.54906 93.5804 8.40001 94.0632 8.40001C94.3502 8.40001 94.5984 8.466 94.8057 8.59798C95.0129 8.72996 95.2544 8.92907 95.5299 9.19303C95.8636 9.52639 96.1745 9.77897 96.4614 9.95191C96.7484 10.1249 97.1287 10.2102 97.6002 10.2102C98.0716 10.2102 98.4166 10.1271 98.7047 9.95988C98.9917 9.79377 99.1363 9.53208 99.1363 9.17596C99.1363 8.93476 99.0532 8.75044 98.8858 8.62415L98.8847 8.62074Z" fill="#FF5544"/>
</g>
<defs>
<clipPath id="clip0_127_3854">
<rect width="103" height="13" fill="white"/>
</clipPath>
</defs>
</svg>
