<svg xmlns="http://www.w3.org/2000/svg" width="24" height="24" viewBox="0 0 24 24" fill="none">
  <g clip-path="url(#clip0_1107_1355)">
    <path fill-rule="evenodd" clip-rule="evenodd" d="M19 4.74104V8.00004C19.394 8.00004 19.7841 8.07764 20.148 8.2284C20.512 8.37916 20.8427 8.60014 21.1213 8.87872C21.3999 9.15729 21.6209 9.48801 21.7716 9.85199C21.9224 10.216 22 10.6061 22 11C22 11.394 21.9224 11.7841 21.7716 12.1481C21.6209 12.5121 21.3999 12.8428 21.1213 13.1214C20.8427 13.3999 20.512 13.6209 20.148 13.7717C19.7841 13.9224 19.394 14 19 14V17C19 18.648 17.119 19.589 15.8 18.6L13.74 17.054C12.6389 16.2284 11.3567 15.6772 9.99999 15.446V18.29C10.0001 18.9438 9.76389 19.5755 9.33489 20.0688C8.9059 20.5621 8.31304 20.8837 7.66561 20.9743C7.01818 21.0649 6.35981 20.9185 5.81187 20.5619C5.26393 20.2053 4.86336 19.6627 4.68399 19.034L3.11399 13.538C2.54901 12.8708 2.18133 12.0593 2.05228 11.1945C1.92323 10.3298 2.03793 9.44628 2.38348 8.64318C2.72903 7.84008 3.29173 7.14928 4.00834 6.64844C4.72495 6.14759 5.56705 5.85655 6.43999 5.80804L9.45799 5.64004C10.9346 5.55787 12.3706 5.12638 13.648 4.38104L15.992 3.01304C17.326 2.23604 19 3.19704 19 4.74104ZM5.63399 15.078L6.60699 18.485C6.65382 18.65 6.75873 18.7924 6.90237 18.886C7.046 18.9796 7.21864 19.018 7.38842 18.9943C7.5582 18.9705 7.71365 18.8861 7.82606 18.7567C7.93847 18.6272 8.00025 18.4615 7.99999 18.29V15.28L6.43999 15.193C6.16852 15.178 5.89885 15.1395 5.63399 15.078ZM17 4.74104L14.655 6.11004C13.2304 6.94048 11.6418 7.45032 9.99999 7.60404V13.423C11.787 13.669 13.488 14.366 14.94 15.454L17 17V4.74104ZM7.99999 7.72404L6.54999 7.80404C5.87544 7.84129 5.23936 8.13006 4.76731 8.61336C4.29526 9.09666 4.02154 9.73937 4.00019 10.4146C3.97885 11.0899 4.21141 11.7486 4.65199 12.2607C5.09257 12.7729 5.70914 13.1013 6.37999 13.181L6.54999 13.196L7.99999 13.276V7.72404ZM19 10V12C19.2549 11.9998 19.5 11.9022 19.6854 11.7272C19.8707 11.5522 19.9822 11.3131 19.9972 11.0586C20.0121 10.8042 19.9293 10.5537 19.7657 10.3582C19.6021 10.1628 19.3701 10.0371 19.117 10.007L19 10Z" fill="white"/>
  </g>
  <defs>
    <clipPath id="clip0_1107_1355">
      <rect width="24" height="24" fill="white"/>
    </clipPath>
  </defs>
</svg>