<svg xmlns="http://www.w3.org/2000/svg" width="16" height="16" viewBox="0 0 16 16" fill="none">
  <path d="M7.62 10.3475C7.344 8.25947 9.468 7.49147 9.468 6.06347C9.468 5.34347 9.024 4.76747 8.172 4.76747C7.572 4.76747 7.044 5.05547 6.624 5.53547L6 4.95947C6.552 4.32347 7.32 3.85547 8.292 3.85547C9.648 3.85547 10.536 4.68347 10.536 5.99147C10.536 7.75547 8.376 8.46347 8.592 10.3475H7.62ZM8.136 13.1555C7.704 13.1555 7.344 12.8195 7.344 12.3275C7.344 11.8235 7.704 11.4755 8.136 11.4755C8.58 11.4755 8.94 11.8235 8.94 12.3275C8.94 12.8195 8.58 13.1555 8.136 13.1555Z" fill="#8B8D8E"/>
  <path fill-rule="evenodd" clip-rule="evenodd" d="M8 15C11.866 15 15 11.866 15 8C15 4.13401 11.866 1 8 1C4.13401 1 1 4.13401 1 8C1 11.866 4.13401 15 8 15ZM8 16C12.4183 16 16 12.4183 16 8C16 3.58172 12.4183 0 8 0C3.58172 0 0 3.58172 0 8C0 12.4183 3.58172 16 8 16Z" fill="#8B8D8E"/>
</svg>