<svg width="17" height="15" viewBox="0 0 17 15" fill="none" xmlns="http://www.w3.org/2000/svg">
<g id="_?&#235;&#141;&#137;&#236;&#148;&#160;??1">
<path id="Vector" d="M1.7378 3.32631C1.44185 4.33643 1.53038 5.41737 1.36512 6.457C1.03376 8.53879 -0.302669 10.656 0.511833 12.6003C1.1265 14.0675 2.85416 14.8331 4.44185 14.7403C6.02954 14.6476 7.49328 13.8592 8.80694 12.9612C9.26057 12.6509 9.7201 12.3187 10.2572 12.2024C11.151 12.0093 12.0557 12.4519 12.9697 12.4713C14.5599 12.5042 16.0194 11.0295 15.9697 9.44014C15.9317 8.22597 15.1442 7.1484 14.1982 6.38702C13.2521 5.62563 12.1383 5.10708 11.1147 4.45278C10.1012 3.80523 9.16951 3.02108 8.36344 2.12816C7.82718 1.53457 7.38451 0.676223 6.59193 0.397134C4.67119 -0.279932 2.25635 1.55649 1.7378 3.32631Z" fill="#FF5544"/>
<circle id="Ellipse 13" cx="5.10116" cy="3.92074" r="0.548061" fill="black"/>
<path id="Ellipse 15" d="M8.09442 8.4317C8.09442 8.94394 7.67917 9.35919 7.16693 9.35919C6.65469 9.35919 6.23944 8.94394 6.23944 8.4317C6.23944 7.91946 6.65469 7.50421 7.16693 7.50421C7.67917 7.50421 8.09442 7.91946 8.09442 8.4317Z" fill="black"/>
</g>
</svg>
